<svg width="187" height="84" viewBox="0 0 187 84" fill="none" xmlns="http://www.w3.org/2000/svg">
<rect width="187" height="84" fill="#18191A"/>
<rect x="8" y="16" width="171" height="53" rx="26.5" fill="#242526"/>
<path d="M38.8177 43.6836C38.7852 43.6921 38.7522 43.6985 38.7189 43.7027L41.582 56.2997L44.8448 45.2862L60.8647 34.606L38.8177 43.6836Z" fill="#EDEDED"/>
<path d="M71.0057 28L32 40.1051L38.0551 42.3066C38.0988 42.3241 38.1407 42.3456 38.1805 42.3708C38.2069 42.3509 38.2345 42.3326 38.2631 42.3162L67.0267 30.5157C67.1861 30.4547 67.3616 30.4509 67.5235 30.5049C67.6854 30.5588 67.8235 30.6672 67.9144 30.8116C68.0053 30.956 68.0433 31.1275 68.022 31.2967C68.0007 31.466 67.9213 31.6227 67.7974 31.74C67.782 31.7592 51.4339 42.6643 46.8059 45.7531L59.5651 50.2077L71.0057 28Z" fill="#EDEDED"/>
<path d="M45.8589 46.9825L43.0135 56.6596L50.9228 48.7504L45.8589 46.9825Z" fill="#EDEDED"/>
<path d="M107.578 47.7617C107 48.5898 106.191 49.2109 105.152 49.625C104.121 50.0312 102.918 50.2344 101.543 50.2344C100.152 50.2344 98.918 49.9102 97.8398 49.2617C96.7617 48.6055 95.9258 47.6758 95.332 46.4727C94.7461 45.2695 94.4453 43.875 94.4297 42.2891V40.8008C94.4297 38.2305 95.0273 36.2383 96.2227 34.8242C97.4258 33.4102 99.1133 32.7031 101.285 32.7031C103.066 32.7031 104.5 33.1602 105.586 34.0742C106.672 34.9805 107.336 36.2695 107.578 37.9414H105.328C104.906 35.6836 103.562 34.5547 101.297 34.5547C99.7891 34.5547 98.6445 35.0859 97.8633 36.1484C97.0898 37.2031 96.6992 38.7344 96.6914 40.7422V42.1367C96.6914 44.0508 97.1289 45.5742 98.0039 46.707C98.8789 47.832 100.062 48.3945 101.555 48.3945C102.398 48.3945 103.137 48.3008 103.77 48.1133C104.402 47.9258 104.926 47.6094 105.34 47.1641V43.332H101.391V41.5039H107.578V47.7617ZM117.582 50.2344C115.863 50.2344 114.465 49.6719 113.386 48.5469C112.308 47.4141 111.769 45.9023 111.769 44.0117V43.6133C111.769 42.3555 112.007 41.2344 112.484 40.25C112.968 39.2578 113.64 38.4844 114.5 37.9297C115.367 37.3672 116.304 37.0859 117.312 37.0859C118.961 37.0859 120.242 37.6289 121.156 38.7148C122.07 39.8008 122.527 41.3555 122.527 43.3789V44.2812H113.937C113.968 45.5312 114.332 46.543 115.027 47.3164C115.73 48.082 116.621 48.4648 117.699 48.4648C118.465 48.4648 119.113 48.3086 119.644 47.9961C120.175 47.6836 120.64 47.2695 121.039 46.7539L122.363 47.7852C121.3 49.418 119.707 50.2344 117.582 50.2344ZM117.312 38.8672C116.437 38.8672 115.703 39.1875 115.109 39.8281C114.515 40.4609 114.148 41.3516 114.007 42.5H120.359V42.3359C120.297 41.2344 120 40.3828 119.468 39.7812C118.937 39.1719 118.218 38.8672 117.312 38.8672ZM129.308 34.25V37.3203H131.675V38.9961H129.308V46.8594C129.308 47.3672 129.413 47.75 129.624 48.0078C129.835 48.2578 130.195 48.3828 130.702 48.3828C130.952 48.3828 131.296 48.3359 131.734 48.2422V50C131.163 50.1562 130.609 50.2344 130.07 50.2344C129.101 50.2344 128.37 49.9414 127.878 49.3555C127.386 48.7695 127.14 47.9375 127.14 46.8594V38.9961H124.831V37.3203H127.14V34.25H129.308ZM141.444 39.4766L145.534 32.9375H148.183L142.792 41.3984L148.312 50H145.64L141.444 43.3438L137.226 50H134.565L140.097 41.3984L134.694 32.9375H137.331L141.444 39.4766Z" fill="#EDEDED"/>
</svg>
